<svg  xmlns="http://www.w3.org/2000/svg" class="css-ze2te4 css-qd6ojx" viewBox="0 0 72.8583727045424 72.9328953243991"><g transform="translate(-7.390593752880143, -3.759427791169423) scale(0.8354283980376496)" class="css-1co3eyw" fill="#fb923c"><g xmlns="http://www.w3.org/2000/svg"><path d="M58.7,39.7c0.2,0,0.5-0.1,0.7-0.3l11.7-11.7c1.1-1.1,0.6-3.2-1-4.5c-3.5-2.8-7.3-5-11.1-6.4c-0.4-0.2-0.8-0.2-1.1-0.2   c-1.3,0-2.2,0.9-2.1,2.3L57,38.1C57.1,39,58,39.7,58.7,39.7z M68.5,25.2c0.4,0.3,0.6,0.7,0.6,0.9l-9.7,9.7l-1.1-16.6   C61.9,20.7,65.3,22.7,68.5,25.2z"></path><path d="M52.6,37.9c0.4,0.5,0.9,0.7,1.3,0.7c0.5,0,1-0.3,0.9-1l-1.3-19.2c-0.1-1.8-1.8-3.5-3.6-3.7c-0.8-0.1-1.7-0.1-2.5-0.1   c-2.9,0-5.7,0.5-8.1,1.4c-1.5,0.5-1.7,2.5-0.4,4.1L52.6,37.9z M47.5,17.1c0.7,0,1.5,0,2.3,0.1c0.5,0,1.3,0.8,1.3,1.3L52,33L41,18.6   c-0.1-0.2-0.2-0.3-0.2-0.4C42.8,17.5,45.1,17.1,47.5,17.1z"></path><path d="M30.3,32.7l19.6,7.9c0.2,0.1,0.4,0.1,0.5,0.1c0.9,0,1.2-1,0.5-1.9L37.4,21.1c-0.8-1.1-2-1.7-3-1.7c-0.6,0-1.1,0.2-1.5,0.5   c-2.4,2.3-4.1,5.1-5.1,8.4C27.3,29.9,28.5,32,30.3,32.7z M34.4,22c0.2,0,0.6,0.2,1,0.7l10.5,13.6l-14.6-5.9c-0.7-0.3-1.1-1-1.1-1.2   C31,26.3,32.5,23.9,34.4,22z"></path><path d="M50.3,45.1c1-0.3,0.6-1.9-0.6-2.4l-19.6-7.9c-0.4-0.2-0.8-0.3-1.2-0.3c-1.2,0-2.1,0.9-2.1,2.2c0.2,3.8,1.1,7.8,2.7,11.5   c0.6,1.5,2.2,2.6,3.6,2.6c0.3,0,0.5,0,0.8-0.1L50.3,45.1z M31.8,47.2c-1.5-3.4-2.3-6.8-2.5-10.1l16.8,6.8l-13,4.4   C32.8,48.2,32.1,47.9,31.8,47.2z"></path><path d="M51.8,47.1c-0.1,0-0.2,0-0.3,0.1l-16.4,5.6c-1.5,0.5-1.8,2.5-0.6,4.1c2.7,3.6,5.9,6.7,9.3,9.3c0.7,0.5,1.4,0.8,2.1,0.8   c0.9,0,1.7-0.5,2-1.3l5.6-16.4C53.8,48.2,52.8,47.1,51.8,47.1z M45.7,64.3c-0.1,0-0.2-0.1-0.4-0.2c-3.4-2.5-6.3-5.4-8.8-8.8   c-0.1-0.1-0.2-0.3-0.2-0.4l14.2-4.8L45.7,64.3z"></path><path d="M58,50.9c-0.3-0.7-1-1.2-1.6-1.2c-0.4,0-0.7,0.2-0.8,0.6L50,66.8c-0.5,1.5,0.7,3.6,2.5,4.3c3.9,1.7,7.8,2.6,11.5,2.7   c0,0,0.1,0,0.1,0c1.7,0,2.5-1.5,1.8-3.3L58,50.9z M53.5,68.8c-0.7-0.3-1.1-1-1.1-1.2l4.4-13l6.8,16.8   C60.3,71.1,56.9,70.3,53.5,68.8z"></path><path d="M79.5,63.2L61.8,49.6c-0.3-0.3-0.7-0.4-1-0.4c-0.7,0-1.2,0.6-0.8,1.4l7.9,19.6c0.6,1.5,2.2,2.6,3.6,2.6   c0.2,0,0.5,0,0.7-0.1c3.4-1,6.2-2.8,8.4-5.1C81.7,66.6,81.1,64.5,79.5,63.2z M71.6,70.5c-0.3,0-1-0.4-1.3-1.1l-5.9-14.6L78,65.2   c0.4,0.3,0.6,0.8,0.7,1C76.7,68.2,74.3,69.6,71.6,70.5z"></path><path d="M63,45.8C63,45.8,63,45.8,63,45.8c-1.2,0-1.3,1.4-0.3,2.2l17.7,13.6c0.7,0.6,1.5,0.8,2.2,0.8c0.9,0,1.6-0.4,1.9-1.3   c1.2-3.3,1.6-6.9,1.3-10.6c-0.2-1.8-1.9-3.5-3.7-3.6L63,45.8z M83.4,50.8c0.3,3.3,0,6.3-1,9.1c-0.1,0-0.3-0.1-0.4-0.2L67.6,48.6   l14.5,1C82.6,49.6,83.3,50.3,83.4,50.8z"></path><path d="M74.4,29c-0.6,0-1.1,0.2-1.5,0.6L61.2,41.2c-0.7,0.7,0.2,2.3,1.4,2.3l19.2,1.3c0.1,0,0.1,0,0.2,0c1.6,0,2.5-1.5,1.9-3.2   c-1.5-4-3.7-7.7-6.4-11.1C76.5,29.5,75.4,29,74.4,29z M81.3,42.3l-16.6-1.1l9.8-9.8c0.2,0,0.6,0.2,0.9,0.6   C77.9,35.3,79.9,38.7,81.3,42.3z"></path><path d="M45.2,4.5c-8.3,0-15.4,2.8-20.7,8C5.1,31.9,3.5,62.1,21,79.6c8.2,8.2,19.1,12.2,30.3,12.2c13,0,26.4-5.3,36.8-15.7   c13.2-13.2,9.6-38.1-8-55.7C70.1,10.3,57.3,4.5,45.2,4.5z M24.6,76.1c-10.9-10.9-13.4-27.3-8-42.2c0,1.7,0.2,3.4,0.4,5.1   c1.6,10.4,7.1,20.7,15.5,29.1C42.4,78,54.8,83.8,66.7,84C51.8,89.5,35.4,87,24.6,76.1z M84.7,72.5c-4.3,4.3-10.2,6.5-17.1,6.5   c-10.6,0-22.4-5.4-31.5-14.5c-7.7-7.7-12.7-17-14.1-26.3c-1.4-9,0.8-17,6.1-22.3c4.3-4.3,10.2-6.5,17.1-6.5   c10.6,0,22.4,5.4,31.5,14.5C92.3,39.5,95.9,61.3,84.7,72.5z"></path></g></g></svg>